<svg xmlns="http://www.w3.org/2000/svg" xml:space="preserve" width="300" height="383.5"><path fill="#4da2ff" fill-rule="evenodd" stroke="null" d="M206.263 172.039c9.828 12.75 15.75 28.95 15.75 46.514s-6.048 34.218-16.191 47.099l-.882 1.106-.252-1.431c-.189-1.171-.441-2.407-.693-3.643-5.04-22.965-21.546-42.676-48.762-58.68-18.333-10.733-28.854-23.679-31.626-38.381-1.764-9.498-.441-19.061 2.079-27.258 2.583-8.197 6.363-15.027 9.576-19.126l10.584-13.336a4.55 4.55 0 0 1 7.182 0zm16.695-13.336-70.812-89.384c-1.323-1.692-3.906-1.692-5.229 0l-70.875 89.384-.252.325C62.812 175.748 55 196.955 55 220.048c0 53.8 42.336 97.452 94.5 97.452s94.5-43.651 94.5-97.451c0-23.094-7.812-44.302-20.853-61.02zM92.989 171.779l6.3-8.002.189 1.496q.189 1.757.567 3.513c4.095 22.184 18.774 40.724 43.218 55.036 21.294 12.49 33.642 26.867 37.233 42.676 1.512 6.57 1.764 13.075 1.134 18.735l-.063.325-.315.13a70.74 70.74 0 0 1-31.815 7.547c-40.005 0-72.45-33.438-72.45-74.682 0-17.695 5.985-34.024 16.002-46.774" clip-rule="evenodd"/></svg>